<?xml version="1.0" encoding="utf-8"?>
<!-- Generator: Adobe Illustrator 16.0.0, SVG Export Plug-In . SVG Version: 6.00 Build 0)  -->
<!DOCTYPE svg PUBLIC "-//W3C//DTD SVG 1.1//EN" "http://www.w3.org/Graphics/SVG/1.1/DTD/svg11.dtd">
<svg version="1.1" id="Layer_1" xmlns="http://www.w3.org/2000/svg" xmlns:xlink="http://www.w3.org/1999/xlink" x="0px" y="0px"
	 width="24px" height="24px" viewBox="0 0 24 24" enable-background="new 0 0 24 24" xml:space="preserve">
<g>
	<defs>
		<rect id="SVGID_1_" width="24" height="24"/>
	</defs>
	<clipPath id="SVGID_2_">
		<use xlink:href="#SVGID_1_"  overflow="visible"/>
	</clipPath>
	<g clip-path="url(#SVGID_2_)">
		<defs>
			<rect id="SVGID_3_" width="24" height="24"/>
		</defs>
		<clipPath id="SVGID_4_">
			<use xlink:href="#SVGID_3_"  overflow="visible"/>
		</clipPath>
		<path clip-path="url(#SVGID_4_)" d="M20,2H4C2.895,2,2.01,2.895,2.01,4L2,20c0,1.105,0.895,2,2,2h16c1.105,0,2-0.895,2-2V4
			C22,2.895,21.105,2,20,2 M16,9v1c0,0.553,0.447,1,1,1s1,0.447,1,1v3c0,1.656-1.343,3-3,3H9c-1.657,0-3-1.344-3-3V8
			c0-1.656,1.343-3,3-3h4c1.657,0,3,1.344,3,3V9z M9.95,10h2.6c0.552,0,1-0.447,1-1s-0.448-1-1-1h-2.6c-0.552,0-1,0.447-1,1
			S9.398,10,9.95,10 M14,13H9.95c-0.552,0-1,0.447-1,1s0.448,1,1,1H14c0.553,0,1-0.447,1-1S14.553,13,14,13"/>
	</g>
</g>
</svg>
