<?xml version="1.0" encoding="utf-8"?>
<!-- Generator: Adobe Illustrator 16.0.0, SVG Export Plug-In . SVG Version: 6.00 Build 0)  -->
<!DOCTYPE svg PUBLIC "-//W3C//DTD SVG 1.1//EN" "http://www.w3.org/Graphics/SVG/1.1/DTD/svg11.dtd">
<svg version="1.1" id="Layer_1" xmlns="http://www.w3.org/2000/svg" xmlns:xlink="http://www.w3.org/1999/xlink" x="0px" y="0px"
	 width="24px" height="24px" viewBox="0 0 24 24" enable-background="new 0 0 24 24" xml:space="preserve">
<g>
	<defs>
		<rect id="SVGID_1_" width="24" height="24"/>
	</defs>
	<clipPath id="SVGID_2_">
		<use xlink:href="#SVGID_1_"  overflow="visible"/>
	</clipPath>
	<g clip-path="url(#SVGID_2_)">
		<defs>
			<rect id="SVGID_3_" width="24" height="24"/>
		</defs>
		<clipPath id="SVGID_4_">
			<use xlink:href="#SVGID_3_"  overflow="visible"/>
		</clipPath>
		<path clip-path="url(#SVGID_4_)" d="M11.2,8.874c0-1.019-0.629-3.018-2.083-3.018C8.48,5.856,7.8,6.294,7.8,7.524
			c0,1.182,0.626,2.932,1.968,2.932C9.826,10.456,11.2,10.438,11.2,8.874 M10.566,13.809C10.464,13.8,10.384,13.8,10.252,13.8H10.23
			c-0.26,0-1.153,0.05-1.818,0.273C7.768,14.309,7,14.795,7,15.774C7,16.853,8.037,18,9.96,18c1.525,0,2.437-1.003,2.437-1.973
			C12.396,15.256,11.938,14.792,10.566,13.809 M20,2H4C2.896,2,2.01,2.895,2.01,4L2,20c0,1.105,0.896,2,2,2h16c1.105,0,2-0.895,2-2
			V4C22,2.895,21.105,2,20,2 M9.066,19.2C6.27,19.2,5,17.638,5,16.187c0-0.452,0.141-1.59,1.479-2.387
			c0.769-0.471,1.849-0.781,3.142-0.906c-0.189-0.25-0.337-0.547-0.337-0.991c0-0.155,0.018-0.309,0.054-0.465H8.954
			C6.98,11.438,5.8,9.891,5.8,8.395C5.8,6.664,7.087,4.8,9.913,4.8h4.214l-0.341,0.341l-0.708,0.708L13.02,5.908h-0.717
			C12.711,6.332,13.2,7.027,13.2,8.067c0,1.404-0.738,2.093-1.56,2.731c-0.158,0.123-0.424,0.381-0.424,0.725
			c0,0.296,0.244,0.495,0.394,0.617c0.134,0.11,0.295,0.223,0.469,0.344C12.891,13.05,14,13.827,14,15.361
			C14,17.132,12.711,19.2,9.066,19.2 M19,12h-2v2h-1v-2h-2v-1h2V9h1v2h2V12z"/>
	</g>
</g>
</svg>
